<!DOCTYPE svg PUBLIC "-//W3C//DTD SVG 1.1//EN" "http://www.w3.org/Graphics/SVG/1.1/DTD/svg11.dtd">
<!-- Uploaded to: SVG Repo, www.svgrepo.com, Transformed by: SVG Repo Mixer Tools -->
<svg fill="#a2f77d" height="64px" width="64px" version="1.1" id="Layer_1" xmlns="http://www.w3.org/2000/svg" xmlns:xlink="http://www.w3.org/1999/xlink" viewBox="0 0 471.317 471.317" xml:space="preserve" stroke="#a2f77d">
<g id="SVGRepo_bgCarrier" stroke-width="0"/>
<g id="SVGRepo_tracerCarrier" stroke-linecap="round" stroke-linejoin="round"/>
<g id="SVGRepo_iconCarrier"> <g> <g> <circle cx="267.659" cy="364.651" r="21.333"/> </g> </g> <g> <g> <path d="M317.525,262.315c2.123-3.744,3.563-7.925,3.936-12.427l2.965-35.552c2.379,0.565,4.8,0.981,7.232,0.981 c17.643,0,32-14.357,32-32c0-17.643-14.357-32-32-32c-0.672,0-1.333,0.224-2.005,0.277l0.171-2.101 c1.376-1.376,2.56-2.976,3.189-4.928c20.907-64.309,23.84-81.483,21.557-88.619C350.112,23.819,300.117,0,235.659,0 S121.205,23.819,116.747,55.947c-2.293,7.136,0.651,24.299,21.557,88.619c0.629,1.952,1.813,3.552,3.189,4.928l0.171,2.101 c-0.672-0.053-1.333-0.277-2.005-0.277c-17.643,0-32,14.357-32,32c0,17.643,14.357,32,32,32c2.432,0,4.853-0.416,7.232-0.981 l2.965,35.552c0.373,4.512,1.824,8.683,3.936,12.427c-39.04,12.171-67.467,48.661-67.467,91.669v106.667 c0,5.899,4.768,10.667,10.667,10.667h277.333c5.899,0,10.667-4.768,10.667-10.667V353.984 C384.992,310.976,356.565,274.485,317.525,262.315z M331.659,172.651c5.888,0,10.667,4.779,10.667,10.667 s-4.779,10.667-10.667,10.667V172.651z M139.659,193.984c-5.888,0-10.667-4.779-10.667-10.667s4.779-10.667,10.667-10.667V193.984 z M141.408,62.699c0.181-0.779,0.277-1.557,0.309-2.357c0.501-14.635,36.491-35.04,93.941-35.04s93.44,20.405,93.941,35.04 c0.032,0.8,0.139,1.579,0.309,2.357c-0.864,8.043-9.429,37.888-18.133,65.312H159.541 C150.837,100.587,142.272,70.752,141.408,62.699z M310.368,153.301l-7.925,94.997c-0.384,4.629-3.328,8.405-7.392,9.995 c-2.016-0.128-4.011-0.309-6.059-0.309H182.325c-2.048,0-4.043,0.181-6.059,0.309c-4.064-1.589-7.008-5.365-7.392-9.995 l-7.925-94.997H310.368z M363.659,449.984h-32v-96c0-5.899-4.768-10.667-10.667-10.667c-5.899,0-10.667,4.768-10.667,10.667v96 H160.992v-96c0-5.899-4.768-10.667-10.667-10.667c-5.899,0-10.667,4.768-10.667,10.667v96h-32v-96 c0-41.163,33.504-74.667,74.667-74.667h106.667c41.163,0,74.667,33.504,74.667,74.667V449.984z"/> </g> </g> <g> <g> <polygon points="248.309,64 248.309,44.651 223.008,44.651 223.008,64 203.659,64 203.659,89.301 223.008,89.301 223.008,108.651 248.309,108.651 248.309,89.301 267.659,89.301 267.659,64 "/> </g> </g> <g> <g> <circle cx="11.659" cy="247.317" r="10.667"/> </g> </g> <g> <g> <circle cx="54.325" cy="247.317" r="10.667"/> </g> </g> <g> <g> <circle cx="96.992" cy="247.317" r="10.667"/> </g> </g> <g> <g> <circle cx="374.325" cy="247.317" r="10.667"/> </g> </g> <g> <g> <circle cx="416.992" cy="247.317" r="10.667"/> </g> </g> <g> <g> <circle cx="459.659" cy="247.317" r="10.667"/> </g> </g> </g>
</svg>